<svg xmlns="http://www.w3.org/2000/svg" width="383" height="348" viewBox="0 0 383 348">
    <g fill="none">
        <path fill="#FF2A74" d="M0 1.551C10.958.525 22.063 0 33.291 0 225.127 0 380.953 153.18 383 343H198.452c-2.032-88.54-75.16-159.764-165.16-159.764-11.405 0-22.54 1.144-33.292 3.322V1.55z" transform="matrix(-1 0 0 1 383 0)"/>
        <path fill="#FFF" d="M309.304 185.155c-4.692 20.775-22.336 44.134-53.195 68.92-22.76 18.28-42.462 38.422-59.109 60.426 1.972 9.33 3.144 18.853 3.492 28.499h73.97c20.946-35.495 50.291-66.59 89.264-92.612.761-.509 1.52-1.019 2.274-1.53-12.861-42.617-33.856-82.244-61.699-116.858l-13.607 6.597c16.04 11.215 22.923 27.464 18.61 46.558zM130.511 216.77c-.748.365-1.634.292-2.313-.191-5.747-4.088-11.754-7.798-17.982-11.104-.955-.506-1.425-1.617-1.127-2.66 8.3-29.003 22.093-49.12 42.553-59.725 48.943-25.369 108.108-26.513 139.347-4.56l.011.008-160.489 78.232zM282 137.447c-31.192-16.3-83.905-13.7-128.136 9.027-18.848 9.684-31.814 28.055-39.864 54.83 5.438 2.94 10.708 6.177 15.785 9.696L282 137.447zm22.242-10.218c.953-.462 2.098-.208 2.766.614 29.023 35.726 50.79 76.815 63.898 121.058.281.949-.082 1.972-.9 2.53-1.217.833-2.445 1.663-3.681 2.49-38.653 25.827-67.609 56.694-88.166 91.947-.409.701-1.159 1.132-1.97 1.132h-77.196c-1.24 0-2.252-.99-2.28-2.229-.238-10.439-1.469-20.736-3.66-30.793-.142-.648.006-1.326.404-1.856 16.943-22.564 37.04-43.19 60.289-61.876 57.285-46.044 66.243-85.74 34.679-107.816-2.158-1.51-4.462-2.903-6.898-4.18l22.715-11.021zm-199.176-18.131c7.126-15.86 14.46-31.456 23.647-50.485-1.65 3.416 13.118-27.022 18.287-37.835-4.983-1.706-10.008-3.3-15.07-4.778C84.684 67.066 48.044 122.637 22 182.72c3.945-.276 7.911-.414 11.895-.414 13.496 0 26.784 1.586 39.666 4.694 8.508-24.352 18.974-50.016 31.505-77.902zM74.22 190.929c-13.115-3.331-26.678-5.034-40.47-5.034-5.116 0-10.203.234-15.25.7-1.724.159-2.993-1.574-2.316-3.162C42.63 121.42 80.28 64.183 129.125 11.729c.587-.63 1.48-.878 2.31-.64 6.406 1.839 12.753 3.858 19.034 6.056 1.28.447 1.89 1.901 1.311 3.124-3.63 7.668-21.145 43.687-19.348 39.973-9.145 18.9-16.443 34.383-23.53 50.12-12.78 28.378-23.393 54.418-31.95 79.086l-.005.017c-.389 1.12-1.574 1.757-2.726 1.464z" transform="matrix(-1 0 0 1 383 0)"/>
    </g>
</svg>
