<?xml version="1.0" encoding="UTF-8"?>
<svg width="337px" height="81px" viewBox="0 0 337 81" version="1.1" xmlns="http://www.w3.org/2000/svg" xmlns:xlink="http://www.w3.org/1999/xlink">
    <title>DDF28EE1-BAC8-4D1F-BEC5-11F576023D2F</title>
    <g id="UI" stroke="none" stroke-width="1" fill="none" fill-rule="evenodd">
        <g id="Coming-soon" transform="translate(-553.000000, -336.000000)">
            <g id="Group-2" transform="translate(-24.000000, -11.000000)">
                <g id="Group" transform="translate(576.000000, 347.000000)">
                    <g id="logo-W">
                        <g id="Group-3" transform="translate(69.391533, 13.500000)" fill="#FFFFFF" fill-rule="nonzero" font-size="43.9339934" font-style="italic">
                            <g id="Group" transform="translate(0.350822, 0.675000)">
                                <text id="eClick" font-family="CocogoosePro-LightItalic, Cocogoose Pro" font-weight="300">
                                    <tspan x="0.76369637" y="44">eClick</tspan>
                                </text>
                                <text id="POS" font-family="CocogoosePro-Italic, Cocogoose Pro" font-weight="normal">
                                    <tspan x="142.54" y="44">POS</tspan>
                                </text>
                            </g>
                        </g>
                        <g id="Group-2" transform="translate(-0.000039, 0.394932)">
                            <path d="M57.600117,79.9521309 C57.600117,79.9521309 57.600117,79.9521309 57.600117,79.9521309 L13.1251756,79.9521309 C5.87635566,79.9521309 -3.2924774e-13,74.0670566 -3.2924774e-13,66.8074818 L-3.2924774e-13,12.9412784 C-3.2924774e-13,10.5556509 0.63496192,8.31616293 1.74713125,6.38870235 C2.30715977,5.41312293 2.98944805,4.51653778 3.77822062,3.7186955 L34.6547229,38.9343481 L43.0867017,48.5479526 L62.0364282,70.1630931 C64.1844252,72.613196 63.939501,76.3406913 61.4893871,78.4886758 C60.4133479,79.4320261 59.0311202,79.9521309 57.600117,79.9521309 Z" id="Fill-1" fill="#660059"></path>
                            <path d="M63.9146358,31.3094641 L63.9146358,31.546447 C63.8791411,33.5055053 62.9483894,35.4606139 61.0671669,36.7008241 L43.0870961,48.5460173 L21.2578152,62.926927 C20.1495897,63.6576241 18.6548657,63.1086139 18.2762549,61.8368059 L16.8880151,57.176143 L1.74752563,6.38676699 C2.30755416,5.41118757 2.98984243,4.51460242 3.778615,3.71676014 L34.6551173,38.9324127 L51.2942747,21.8538481 L60.0614818,25.5784287 C62.5540032,26.6369521 63.8791411,28.9554344 63.9146358,31.3094641" id="Fill-4" fill="#E62668"></path>
                            <path d="M51.2942747,21.8538876 L34.6551173,38.9324522 L3.778615,3.71679963 C4.26371013,3.21518592 4.79613162,2.75701906 5.36010401,2.34229906 L51.2942747,21.8538876 Z" id="Fill-6" fill="#FF9003"></path>
                            <path d="M63.3230564,9.013248 C63.0312106,9.62940343 62.6289366,10.2179109 62.1044028,10.755072 L51.2942747,21.8537691 L5.36010401,2.34218057 C6.94553688,1.17306514 8.80704015,0.355474286 10.8262979,-4.94604357e-14 L57.5768482,-4.94604357e-14 C62.4238557,-4.94604357e-14 65.2003351,5.05168457 63.3230564,9.013248" id="Fill-8" fill="#FFC300"></path>
                            <path d="M43.0867017,48.5477947 L21.2574208,62.9287044 C20.1491953,63.6594015 18.6544713,63.1103912 18.2758605,61.8385832 L16.8876208,57.1779204 L1.74713125,6.38854437 C2.30715977,5.41296494 2.98944805,4.51637979 3.77822062,3.71853751 L34.6547229,38.9341901 L43.0867017,48.5477947 Z" id="Fill-11" fill="#FF2A74"></path>
                        </g>
                        <rect id="Rectangle" stroke="#979797" stroke-width="3.37953795" fill="#D8D8D8" opacity="0" x="1.68976898" y="1.68976898" width="333.620462" height="77.620462"></rect>
                    </g>
                </g>
            </g>
        </g>
    </g>
</svg>